<svg xmlns="http://www.w3.org/2000/svg" viewBox="0 0 320 200" width="320" height="200">
  <rect width="320" height="200" fill="#ffffff"/>
  <!-- Nav -->
  <rect width="320" height="28" fill="#fff"/>
  <rect y="27" width="320" height="1" fill="#eee"/>
  <rect x="16" y="10" width="60" height="8" rx="2" fill="#111"/>
  <rect x="240" y="10" width="30" height="8" rx="2" fill="#aaa"/>
  <rect x="276" y="10" width="30" height="8" rx="2" fill="#aaa"/>
  <!-- Hero left -->
  <rect x="0" y="28" width="160" height="112" fill="#f8f8f8"/>
  <rect x="16" y="46" width="30" height="6" rx="2" fill="#0066cc" opacity=".8"/>
  <rect x="16" y="60" width="120" height="14" rx="3" fill="#111"/>
  <rect x="16" y="80" width="100" height="8" rx="2" fill="#555" opacity=".6"/>
  <rect x="16" y="96" width="50" height="18" rx="2" fill="#111"/>
  <rect x="72" y="96" width="50" height="18" rx="3" fill="none" stroke="#111" stroke-width="2"/>
  <!-- Hero right photo -->
  <rect x="160" y="28" width="160" height="112" fill="#e0eaff"/>
  <text x="240" y="95" text-anchor="middle" font-size="50" fill="#aac0e8">👤</text>
  <!-- Content -->
  <rect x="16" y="160" width="90" height="8" rx="2" fill="#111" opacity=".7"/>
  <rect x="16" y="174" width="280" height="5" rx="2" fill="#ddd"/>
  <rect x="16" y="184" width="250" height="5" rx="2" fill="#ddd"/>
  <rect x="16" y="194" width="200" height="5" rx="2" fill="#ddd"/>
</svg>
